<svg xmlns="http://www.w3.org/2000/svg" xmlns:xlink="http://www.w3.org/1999/xlink" width="531" height="350" viewBox="0 0 531 350">
  <defs>
    <clipPath id="clip-path">
      <rect id="Rectángulo_69" data-name="Rectángulo 69" width="231" height="187" transform="translate(1410 1550)" fill="#fff" stroke="#707070" stroke-width="1"/>
    </clipPath>
  </defs>
  <g id="Grupo_64" data-name="Grupo 64" transform="translate(-1189 -1586)">
    <g id="Grupo_57" data-name="Grupo 57" transform="translate(-70 36)">
      <g id="Grupo_55" data-name="Grupo 55" transform="translate(1299 1292)">
        <g id="Grupo_2" data-name="Grupo 2" transform="translate(17 -11)">
          <text id="Data_base" data-name="Data base" transform="translate(91 529)" font-size="45" font-family="Helvetica-Bold, Helvetica" font-weight="700"><tspan x="0" y="0">Data base</tspan></text>
        </g>
      </g>
      <g id="Enmascarar_grupo_13" data-name="Enmascarar grupo 13" clip-path="url(#clip-path)">
        <g id="Cloud" transform="translate(1425.767 1543.767)">
          <path id="Trazado_470" data-name="Trazado 470" d="M18.7,143.367h6.233a3.117,3.117,0,0,0,0-6.233H18.7a3.117,3.117,0,0,0,0,6.233Z"/>
          <path id="Trazado_471" data-name="Trazado 471" d="M37.4,143.367h6.233a3.117,3.117,0,0,0,0-6.233H37.4a3.117,3.117,0,0,0,0,6.233Z"/>
          <path id="Trazado_472" data-name="Trazado 472" d="M56.1,143.367h6.233a3.117,3.117,0,0,0,0-6.233H56.1a3.117,3.117,0,1,0,0,6.233Z"/>
          <path id="Trazado_473" data-name="Trazado 473" d="M18.7,180.767h6.233a3.117,3.117,0,0,0,0-6.233H18.7a3.117,3.117,0,0,0,0,6.233Z"/>
          <path id="Trazado_474" data-name="Trazado 474" d="M37.4,180.767h6.233a3.117,3.117,0,0,0,0-6.233H37.4a3.117,3.117,0,0,0,0,6.233Z"/>
          <path id="Trazado_475" data-name="Trazado 475" d="M56.1,180.767h6.233a3.117,3.117,0,0,0,0-6.233H56.1a3.117,3.117,0,1,0,0,6.233Z"/>
          <path id="Trazado_476" data-name="Trazado 476" d="M137.133,180.767h6.233a3.117,3.117,0,0,0,0-6.233h-6.233a3.117,3.117,0,1,0,0,6.233Z"/>
          <path id="Trazado_477" data-name="Trazado 477" d="M155.833,180.767h6.233a3.117,3.117,0,0,0,0-6.233h-6.233a3.117,3.117,0,1,0,0,6.233Z"/>
          <path id="Trazado_478" data-name="Trazado 478" d="M174.533,180.767h6.233a3.117,3.117,0,1,0,0-6.233h-6.233a3.117,3.117,0,1,0,0,6.233Z"/>
          <path id="Trazado_479" data-name="Trazado 479" d="M190.117,155.833a3.117,3.117,0,0,0,3.117-3.117V127.783a3.117,3.117,0,0,0-3.117-3.117h-28.05v-9.35a3.117,3.117,0,0,0-3.117-3.117H111.757a12.467,12.467,0,0,0-8.907-8.907V87.267h40.517a31.167,31.167,0,0,0,10-60.669A24.933,24.933,0,0,0,123.136,13.71,40.417,40.417,0,0,0,64.855,26.2,31.161,31.161,0,1,0,56.1,87.267H96.617v16.026a12.467,12.467,0,0,0-8.907,8.907H40.517a3.117,3.117,0,0,0-3.117,3.117v9.35H9.35a3.117,3.117,0,0,0-3.117,3.117v24.933a3.117,3.117,0,0,0,3.117,3.117h3.117v6.233H9.35a3.117,3.117,0,0,0-3.117,3.117v24.933a3.117,3.117,0,0,0,3.117,3.117H71.683a3.117,3.117,0,0,0,3.117-3.117V165.183a3.117,3.117,0,0,0-3.117-3.117H68.567v-6.233h3.117a3.117,3.117,0,0,0,3.117-3.117V127.783a3.117,3.117,0,0,0-3.117-3.117H43.633v-6.233H87.709a12.407,12.407,0,0,0,24.048,0h44.076v6.233h-28.05a3.117,3.117,0,0,0-3.117,3.117v24.933a3.117,3.117,0,0,0,3.117,3.117H130.9v6.233h-3.117a3.117,3.117,0,0,0-3.117,3.117v24.933a3.117,3.117,0,0,0,3.117,3.117h62.333a3.117,3.117,0,0,0,3.117-3.117V165.183a3.117,3.117,0,0,0-3.117-3.117H187v-6.233ZM31.167,56.1A24.89,24.89,0,0,1,65.188,32.9a3.117,3.117,0,0,0,3.924-1.5,34.19,34.19,0,0,1,51.6-11.722,3.117,3.117,0,0,0,3.095.424,18.681,18.681,0,0,1,24.4,10.229,3.117,3.117,0,0,0,2.026,1.817,24.933,24.933,0,0,1-6.866,48.885H56.1A24.961,24.961,0,0,1,31.167,56.1ZM68.567,187h-56.1V168.3h56.1Zm-6.233-24.933H18.7v-6.233H62.333ZM68.567,149.6h-56.1V130.9h56.1Zm31.167-28.05a6.233,6.233,0,1,1,6.233-6.233A6.233,6.233,0,0,1,99.733,121.55ZM130.9,130.9H187v18.7H130.9ZM187,187H130.9V168.3H187Zm-6.233-24.933H137.133v-6.233h43.633Z"/>
          <path id="Trazado_480" data-name="Trazado 480" d="M143.367,137.133h-6.233a3.117,3.117,0,1,0,0,6.233h6.233a3.117,3.117,0,0,0,0-6.233Z"/>
          <path id="Trazado_481" data-name="Trazado 481" d="M162.067,137.133h-6.233a3.117,3.117,0,0,0,0,6.233h6.233a3.117,3.117,0,0,0,0-6.233Z"/>
          <path id="Trazado_482" data-name="Trazado 482" d="M180.767,137.133h-6.233a3.117,3.117,0,0,0,0,6.233h6.233a3.117,3.117,0,0,0,0-6.233Z"/>
        </g>
      </g>
    </g>
    <g id="Grupo_63" data-name="Grupo 63" transform="translate(1189 1888)">
      <text id="I_use_mongodb_mysql." data-name="I use mongodb, mysql." font-size="30" font-family="Helvetica-Light, Helvetica" font-weight="300"><tspan x="111.171" y="23">I use mongodb, mysql.</tspan></text>
    </g>
  </g>
</svg>
