<svg xmlns="http://www.w3.org/2000/svg" xmlns:xlink="http://www.w3.org/1999/xlink" width="531" height="522" viewBox="0 0 531 522">
  <defs>
    <clipPath id="clip-path">
      <rect id="Rectángulo_67" data-name="Rectángulo 67" width="202" height="190" transform="translate(231 1534)" fill="#fff" stroke="#707070" stroke-width="1"/>
    </clipPath>
  </defs>
  <g id="Grupo_61" data-name="Grupo 61" transform="translate(-54 -1679)">
    <g id="Grupo_54" data-name="Grupo 54" transform="translate(0 141)">
      <g id="Grupo_53" data-name="Grupo 53" transform="translate(70 1280)">
        <g id="Grupo_2" data-name="Grupo 2" transform="translate(17 -11)">
          <text id="programming" transform="translate(70 529)" font-size="45" font-family="Helvetica-Bold, Helvetica" font-weight="700"><tspan x="0" y="0">programming</tspan></text>
        </g>
      </g>
      <g id="Enmascarar_grupo_11" data-name="Enmascarar grupo 11" transform="translate(-14 4)" clip-path="url(#clip-path)">
        <g id="web-programming" transform="translate(231 1539.89)">
          <path id="Trazado_449" data-name="Trazado 449" d="M79.7,129.648a3.322,3.322,0,0,1-2.159-.8L55.96,110.476a3.336,3.336,0,0,1,0-5.079L77.54,87.022A3.334,3.334,0,1,1,81.863,92.1l-18.6,15.837,18.6,15.837a3.336,3.336,0,0,1-2.164,5.875Zm0,0"/>
          <path id="Trazado_450" data-name="Trazado 450" d="M122.3,129.648a3.337,3.337,0,0,1-2.164-5.875l18.6-15.837L120.137,92.1a3.334,3.334,0,0,1,4.323-5.077L146.04,105.4a3.336,3.336,0,0,1,0,5.079l-21.58,18.375A3.322,3.322,0,0,1,122.3,129.648Zm0,0"/>
          <path id="Trazado_451" data-name="Trazado 451" d="M93.361,143.431a3.392,3.392,0,0,1-.692-.073,3.336,3.336,0,0,1-2.576-3.951l13.449-63.856a3.335,3.335,0,0,1,6.527,1.375L96.619,140.783A3.335,3.335,0,0,1,93.361,143.431Zm0,0"/>
          <path id="Trazado_452" data-name="Trazado 452" d="M179.608,178.22H22.392A22.417,22.417,0,0,1,0,155.829V22.392A22.418,22.418,0,0,1,22.392,0H179.608A22.418,22.418,0,0,1,202,22.392V155.829A22.417,22.417,0,0,1,179.608,178.22ZM22.392,6.67A15.74,15.74,0,0,0,6.67,22.392V155.829A15.74,15.74,0,0,0,22.392,171.55H179.608a15.74,15.74,0,0,0,15.722-15.722V22.392A15.74,15.74,0,0,0,179.608,6.67Zm0,0"/>
          <path id="Trazado_453" data-name="Trazado 453" d="M198.665,53.4H3.335a3.335,3.335,0,1,1,0-6.67h195.33a3.335,3.335,0,0,1,0,6.67Zm0,0"/>
          <path id="Trazado_454" data-name="Trazado 454" d="M56.98,37.443A10.554,10.554,0,1,1,67.534,26.89,10.568,10.568,0,0,1,56.98,37.443Zm0-14.438a3.884,3.884,0,1,0,3.884,3.884A3.889,3.889,0,0,0,56.98,23.006Zm0,0"/>
          <path id="Trazado_455" data-name="Trazado 455" d="M24.554,37.341A10.554,10.554,0,1,1,35.108,26.787,10.566,10.566,0,0,1,24.554,37.341Zm0-14.438a3.884,3.884,0,1,0,3.884,3.884A3.89,3.89,0,0,0,24.554,22.9Zm0,0"/>
          <path id="Trazado_456" data-name="Trazado 456" d="M89.406,37.544A10.553,10.553,0,1,1,99.96,26.99,10.565,10.565,0,0,1,89.406,37.544Zm0-14.438A3.884,3.884,0,1,0,93.29,26.99,3.887,3.887,0,0,0,89.406,23.106Zm0,0"/>
        </g>
      </g>
    </g>
    <g id="Grupo_58" data-name="Grupo 58" transform="translate(-33 1503)">
      <g id="Grupo_2-2" data-name="Grupo 2" transform="translate(87 487)">
        <text id="I_use_poo_mvc_java_c_react_react_native_git_nodejs_heruku_aws_s3_express." data-name="I use poo, mvc, java, c #, react, react native, git, nodejs, heruku, aws s3, express." font-size="30" font-family="Helvetica-Light, Helvetica" font-weight="300"><tspan x="16.611" y="23">I use poo, mvc, java, c #, react, react </tspan><tspan x="33.606" y="59">native, git, nodejs, heruku, aws s3, </tspan><tspan x="208.131" y="95">express.</tspan></text>
      </g>
    </g>
  </g>
</svg>
